<svg xmlns="http://www.w3.org/2000/svg" xmlns:xlink="http://www.w3.org/1999/xlink">
    <symbol id="btn-arrow" viewBox="0 0 27 12">
        <path d="M26.5303 6.53033C26.8232 6.23744 26.8232 5.76257 26.5303 5.46967L21.7574 0.696701C21.4645 0.403808 20.9896 0.403808 20.6967 0.696701C20.4038 0.989594 20.4038 1.46447 20.6967 1.75736L24.9393 6L20.6967 10.2426C20.4038 10.5355 20.4038 11.0104 20.6967 11.3033C20.9896 11.5962 21.4645 11.5962 21.7574 11.3033L26.5303 6.53033ZM-6.55671e-08 6.75L26 6.75L26 5.25L6.55671e-08 5.25L-6.55671e-08 6.75Z"
              fill="currentColor"/>
    </symbol>

    <symbol id="hamburger-menu" viewBox="0 0 22 9">
        <line x1="21.5" y1="0.5" x2="0.5" y2="0.500002" stroke="currentColor" fill="none" stroke-linecap="round"/>
        <line x1="21.5" y1="8.5" x2="0.5" y2="8.5" stroke="currentColor" fill="none" stroke-linecap="round"/>
    </symbol>
    <symbol id="icon_close" viewBox="0 0 25 24">
        <path d="M19.625 4.5L12.125 12M12.125 12L4.625 19.5M12.125 12L4.625 4.5M12.125 12L19.625 19.5"
              stroke="currentColor" fill="none" stroke-linecap="square"/>
    </symbol>
    <symbol id="slider_arrow" viewBox="0 0 72 16">
        <path d="M71.7071 8.70711C72.0976 8.31658 72.0976 7.68342 71.7071 7.29289L65.3431 0.928932C64.9526 0.538408 64.3195 0.538408 63.9289 0.928932C63.5384 1.31946 63.5384 1.95262 63.9289 2.34315L69.5858 8L63.9289 13.6569C63.5384 14.0474 63.5384 14.6805 63.9289 15.0711C64.3195 15.4616 64.9526 15.4616 65.3431 15.0711L71.7071 8.70711ZM0 9H71V7H0V9Z"
              fill="currentColor"/>
    </symbol>
    <symbol id="service-card-arrow" viewBox="0 0 41 12">
            <path d="M40.5303 6.53033C40.8232 6.23744 40.8232 5.76257 40.5303 5.46967L35.7574 0.696702C35.4645 0.403809 34.9896 0.403809 34.6967 0.696702C34.4038 0.989596 34.4038 1.46447 34.6967 1.75736L38.9393 6L34.6967 10.2426C34.4038 10.5355 34.4038 11.0104 34.6967 11.3033C34.9896 11.5962 35.4645 11.5962 35.7574 11.3033L40.5303 6.53033ZM-6.55671e-08 6.75L40 6.75L40 5.25L6.55671e-08 5.25L-6.55671e-08 6.75Z"
                  fill="currentColor"/>
    </symbol>
    <symbol id="icon_arrow_select" viewBox="0 0 25 25">
            <path d="M4.5 9L12.75 17.25L21 9" stroke="currentColor" fill="none" stroke-linecap="square"/>
    </symbol>

    <symbol id="icon_arrow_prev" viewBox="0 0 42 12">
            <path d="M0.470509 6.53033C0.177616 6.23744 0.177616 5.76256 0.470509 5.46967L5.24348 0.696699C5.53637 0.403806 6.01125 0.403806 6.30414 0.696699C6.59703 0.989593 6.59703 1.46447 6.30414 1.75736L2.0615 6L6.30414 10.2426C6.59703 10.5355 6.59703 11.0104 6.30414 11.3033C6.01125 11.5962 5.53637 11.5962 5.24348 11.3033L0.470509 6.53033ZM41.5723 6.75H1.00084V5.25H41.5723V6.75Z" fill="currentColor"/>
    </symbol>
</svg>
